<?xml version="1.0" standalone="no"?>
<!DOCTYPE svg PUBLIC "-//W3C//DTD SVG 20010904//EN"
 "http://www.w3.org/TR/2001/REC-SVG-20010904/DTD/svg10.dtd">
<svg version="1.0" xmlns="http://www.w3.org/2000/svg"
 width="546.000000pt" height="567.000000pt" viewBox="0 0 546.000000 567.000000"
 preserveAspectRatio="xMidYMid meet">

<g transform="translate(0.000000,567.000000) scale(0.100000,-0.100000)"
fill="#000000" stroke="none">
<path d="M2675 4874 c-178 -26 -295 -52 -295 -67 0 -4 -4 -6 -9 -3 -14 9 -102
-25 -94 -36 4 -7 1 -8 -6 -3 -15 9 -93 -24 -85 -36 3 -5 -1 -7 -8 -4 -18 6
-114 -48 -111 -63 2 -7 -4 -9 -14 -5 -11 4 -14 3 -9 -5 4 -8 2 -10 -7 -6 -8 3
-23 -3 -32 -13 -10 -10 -23 -18 -29 -18 -6 -1 -10 -7 -8 -14 1 -7 -2 -10 -7
-6 -6 3 -19 -2 -29 -12 -10 -10 -44 -40 -75 -66 -34 -29 -54 -53 -50 -60 3 -7
2 -9 -2 -4 -11 9 -45 -21 -45 -40 0 -8 -4 -12 -9 -9 -5 3 -25 -14 -46 -39 -20
-25 -34 -45 -30 -45 3 0 -8 -15 -24 -32 -17 -18 -31 -37 -31 -42 0 -4 -17 -31
-38 -59 -20 -29 -36 -53 -34 -54 1 -2 -12 -30 -28 -64 -42 -83 -92 -220 -86
-235 3 -8 1 -16 -3 -18 -11 -7 -34 -124 -26 -135 3 -5 0 -11 -6 -13 -7 -2 -12
-64 -15 -173 -3 -94 -2 -165 3 -158 4 6 8 -16 8 -50 1 -69 24 -189 35 -182 4
2 5 -6 3 -19 -3 -13 0 -27 6 -30 6 -4 11 -18 11 -32 0 -17 4 -23 12 -18 7 4 8
3 4 -4 -10 -16 4 -63 17 -55 5 3 7 1 4 -4 -4 -6 -2 -25 4 -42 10 -28 20 -36
42 -32 5 1 6 -3 2 -9 -3 -6 -11 -7 -17 -4 -6 4 6 -25 27 -65 21 -39 41 -71 46
-71 5 0 9 -6 9 -13 0 -33 192 -263 210 -252 5 3 8 0 5 -7 -3 -7 50 -68 119
-137 l123 -124 -8 -36 c-5 -20 -9 -65 -9 -101 -1 -252 188 -482 437 -535 86
-19 140 -18 228 0 201 42 368 203 420 402 19 73 19 202 0 273 -40 150 -153
289 -288 354 -98 47 -154 58 -280 54 l-107 -3 -104 103 c-57 56 -110 101 -117
99 -8 -2 -10 -2 -6 1 5 2 1 13 -9 23 -9 10 -22 16 -28 12 -6 -3 -8 -3 -4 2 4
4 -12 31 -35 59 -23 29 -50 63 -59 76 -14 20 -16 21 -12 5 5 -16 4 -17 -4 -5
-6 8 -9 18 -6 22 8 13 -16 49 -28 42 -7 -4 -8 -3 -4 4 4 6 -2 29 -13 50 -18
34 -63 161 -66 187 -1 6 -3 25 -3 43 -1 18 -5 31 -9 29 -12 -7 -6 149 7 240 7
43 20 105 31 137 10 33 15 64 12 69 -3 6 -2 7 4 4 14 -9 33 37 22 54 -14 22
-10 35 4 15 12 -16 15 -14 32 23 10 23 22 41 27 41 4 0 6 11 4 25 -3 15 -1 23
5 20 5 -4 7 -12 4 -18 -3 -7 0 -3 7 8 7 11 44 52 82 90 39 39 69 73 68 78 -1
4 1 6 6 5 4 -2 24 8 45 20 38 24 48 36 23 26 -8 -3 -17 -1 -20 4 -3 5 7 8 22
6 14 -1 29 0 32 4 9 12 144 71 179 78 19 4 28 10 21 14 -6 4 1 7 17 7 15 0 74
6 130 13 179 22 362 -16 533 -112 30 -17 57 -33 60 -37 19 -23 99 -79 105 -73
5 4 5 2 2 -4 -8 -14 17 -37 28 -26 5 4 5 2 2 -4 -8 -14 36 -57 48 -47 4 5 5 3
2 -3 -8 -14 17 -37 28 -26 5 4 5 2 2 -4 -8 -14 36 -57 48 -47 4 5 5 3 2 -3 -8
-14 17 -37 28 -26 5 4 5 2 2 -4 -8 -14 36 -57 48 -47 4 5 5 3 2 -3 -8 -14 17
-37 28 -26 5 4 5 2 2 -4 -8 -14 36 -57 48 -47 4 5 5 3 2 -3 -8 -14 17 -37 28
-26 5 4 5 2 2 -4 -8 -14 36 -57 48 -47 4 5 5 3 2 -3 -8 -14 17 -37 28 -26 5 4
5 2 2 -4 -7 -12 35 -57 46 -49 4 3 5 2 2 -2 -8 -10 16 -33 29 -26 6 3 8 2 3
-2 -10 -12 33 -56 47 -48 6 3 8 3 4 -2 -11 -11 12 -36 25 -28 5 3 7 2 4 -4 -8
-13 37 -56 48 -46 4 5 5 3 2 -3 -8 -14 17 -37 28 -26 5 4 5 2 2 -4 -8 -14 36
-57 48 -47 4 5 5 3 2 -3 -8 -14 17 -37 28 -26 5 4 5 2 2 -4 -8 -14 36 -57 48
-47 4 5 5 3 2 -3 -8 -14 17 -37 28 -26 5 4 5 2 2 -4 -8 -14 36 -57 48 -47 4 5
5 3 2 -3 -8 -14 17 -37 28 -26 5 4 5 2 2 -4 -8 -14 36 -57 48 -47 4 5 5 3 2
-3 -8 -14 17 -37 28 -26 5 4 5 2 2 -4 -8 -14 36 -57 48 -47 4 5 5 3 2 -3 -7
-13 16 -37 26 -29 4 3 5 2 2 -2 -8 -10 26 -43 43 -43 9 0 12 -3 9 -7 -8 -7 46
-42 71 -46 9 -1 23 -6 29 -10 25 -16 167 -2 156 16 -3 6 -1 7 5 3 13 -8 72 23
72 37 0 4 4 6 9 2 12 -7 54 52 46 65 -3 5 0 10 8 10 17 0 30 27 20 42 -3 6 -1
8 4 5 14 -9 23 26 23 89 0 61 -14 104 -51 158 -35 52 -1221 1236 -1238 1236
-7 0 -9 -5 -5 -12 4 -6 -4 -3 -18 8 -14 10 -24 21 -22 23 2 2 11 -2 21 -10 11
-9 14 -10 9 -2 -4 7 -28 27 -53 44 -25 18 -43 27 -39 21 5 -8 2 -10 -8 -6 -9
3 -14 10 -11 15 9 13 -34 31 -58 24 -16 -5 -18 -4 -8 3 20 14 -5 29 -161 97
-132 57 -320 95 -492 100 -72 2 -144 1 -161 -1z m408 -61 c-7 -2 -19 -2 -25 0
-7 3 -2 5 12 5 14 0 19 -2 13 -5z m271 -68 c11 -8 14 -15 8 -15 -7 0 -14 0
-17 0 -3 0 -5 3 -4 6 0 4 -5 11 -13 15 -7 5 -8 9 -3 9 6 -1 19 -7 29 -15z
m-1214 -55 c0 -5 -2 -10 -4 -10 -3 0 -8 5 -11 10 -3 6 -1 10 4 10 6 0 11 -4
11 -10z m1470 -74 c0 -2 -7 -7 -16 -10 -8 -3 -12 -2 -9 4 6 10 25 14 25 6z
m-1760 -130 c0 -2 -7 -7 -16 -10 -8 -3 -12 -2 -9 4 6 10 25 14 25 6z m-118
-138 c-7 -7 -18 -13 -25 -13 -7 -1 -11 -7 -9 -14 1 -7 -2 -10 -8 -6 -8 5 -8
11 1 21 6 7 15 12 19 9 5 -3 11 -1 15 5 3 5 9 10 13 10 3 0 0 -6 -6 -12z m735
-64 c-3 -3 -12 -4 -19 -1 -8 3 -5 6 6 6 11 1 17 -2 13 -5z m689 -19 c10 -8 15
-14 9 -14 -5 0 -19 6 -29 14 -11 8 -15 15 -10 15 6 0 19 -7 30 -15z m249 -125
c-3 -5 -12 -10 -18 -10 -7 0 -6 4 3 10 19 12 23 12 15 0z m-1844 -43 c-10 -9
-11 -8 -5 6 3 10 9 15 12 12 3 -3 0 -11 -7 -18z m2013 -115 c2 -4 -4 -8 -14
-8 -10 0 -16 4 -14 8 3 4 9 8 14 8 5 0 11 -4 14 -8z m160 -160 c2 -4 -4 -8
-14 -8 -10 0 -16 4 -14 8 3 4 9 8 14 8 5 0 11 -4 14 -8z m160 -160 c2 -4 -4
-8 -14 -8 -10 0 -16 4 -14 8 3 4 9 8 14 8 5 0 11 -4 14 -8z m160 -160 c2 -4
-4 -8 -14 -8 -10 0 -16 4 -14 8 3 4 9 8 14 8 5 0 11 -4 14 -8z m160 -160 c2
-4 -4 -8 -14 -8 -10 0 -16 4 -14 8 3 4 9 8 14 8 5 0 11 -4 14 -8z m-2267 -114
c-3 -8 -6 -5 -6 6 -1 11 2 17 5 13 3 -3 4 -12 1 -19z m2427 -46 c2 -4 -4 -8
-14 -8 -10 0 -16 4 -14 8 3 4 9 8 14 8 5 0 11 -4 14 -8z m373 -268 c-3 -3 -12
-4 -19 -1 -8 3 -5 6 6 6 11 1 17 -2 13 -5z m-3174 -84 c3 -11 1 -18 -4 -14 -5
3 -9 12 -9 20 0 20 7 17 13 -6z m590 5 c-3 -9 -8 -14 -10 -11 -3 3 -2 9 2 15
9 16 15 13 8 -4z m-484 -229 c-3 -3 -11 5 -18 17 -13 21 -12 21 5 5 10 -10 16
-20 13 -22z m1001 -750 c0 -2 -7 -7 -16 -10 -8 -3 -12 -2 -9 4 6 10 25 14 25
6z"/>
<path d="M2783 3925 c-225 -61 -386 -262 -400 -500 -10 -169 40 -299 162 -420
128 -129 310 -188 475 -155 l45 9 126 -126 c85 -84 131 -123 139 -118 9 6 11
4 5 -4 -4 -8 2 -21 15 -33 17 -16 24 -18 30 -8 5 8 10 9 14 2 3 -6 1 -12 -5
-14 -7 -2 -1 -16 15 -33 15 -16 36 -43 47 -62 11 -18 23 -33 25 -33 3 0 2 5
-2 12 -4 7 -3 8 4 4 7 -4 12 -11 12 -16 0 -5 5 -21 10 -35 9 -24 12 -26 28
-14 15 12 16 12 5 -2 -10 -13 -9 -24 4 -57 8 -23 20 -39 26 -35 6 3 7 2 4 -4
-3 -5 1 -32 9 -59 23 -76 25 -92 31 -199 6 -116 -11 -228 -51 -326 -14 -34
-22 -67 -19 -73 3 -6 2 -8 -2 -3 -5 4 -19 -11 -32 -34 -25 -44 -28 -53 -15
-45 4 2 8 -4 8 -15 0 -18 -1 -19 -12 -4 -11 15 -14 14 -31 -12 -10 -15 -26
-34 -35 -41 -19 -14 -26 -38 -8 -27 6 4 7 -1 3 -11 -4 -12 -8 -14 -11 -6 -2 8
-25 -5 -60 -35 -32 -26 -59 -50 -62 -53 -13 -16 -133 -83 -197 -110 -66 -27
-169 -56 -233 -65 -42 -6 -234 -7 -250 -2 -8 3 -33 8 -55 12 -22 3 -62 13 -88
21 -26 9 -60 13 -75 10 -17 -4 -22 -3 -14 2 11 7 10 11 -5 17 -10 5 -24 7 -32
6 -7 -1 -10 2 -6 8 5 9 -7 16 -17 10 -2 -1 -23 12 -48 29 l-45 30 -26 -19
c-15 -10 -31 -19 -36 -19 -4 0 0 5 10 11 9 6 15 14 12 20 -3 5 1 6 9 3 9 -3
16 -1 16 5 0 14 -35 32 -45 23 -5 -4 -5 -2 -1 5 5 10 -9 27 -24 28 -3 0 -38
35 -79 78 -41 42 -78 74 -84 70 -6 -3 -7 -2 -4 4 8 13 -147 166 -158 156 -4
-4 -5 -3 -2 3 8 14 -146 167 -158 157 -4 -4 -5 -3 -2 3 6 10 -144 168 -154
162 -2 -2 -3 -1 -1 1 6 10 -152 160 -161 154 -6 -3 -7 -2 -4 4 8 13 -147 166
-158 156 -4 -4 -5 -3 -2 3 8 14 -146 167 -158 157 -4 -4 -5 -3 -2 3 4 6 -31
48 -78 93 -76 75 -86 81 -106 71 -16 -9 -24 -9 -33 1 -8 9 -8 10 1 5 6 -3 18
-3 27 0 52 20 -92 78 -174 71 -63 -6 -164 -52 -157 -72 3 -7 -1 -12 -11 -11
-10 0 -16 -6 -16 -16 1 -9 -4 -14 -11 -12 -14 6 -28 -23 -19 -37 3 -5 2 -8 -3
-7 -4 2 -9 0 -10 -5 -2 -4 -9 -20 -16 -35 -23 -45 -21 -120 5 -187 22 -57 55
-92 655 -693 357 -358 637 -631 643 -627 6 3 9 2 8 -3 -3 -9 41 -54 89 -92 14
-10 32 -16 41 -13 13 4 14 3 3 -5 -10 -7 -8 -13 10 -26 27 -19 43 -21 33 -4
-4 7 -3 8 5 4 6 -4 9 -11 6 -15 -2 -5 13 -20 35 -35 22 -14 40 -24 40 -20 0 3
7 -2 16 -10 8 -9 21 -16 29 -16 7 0 15 -4 17 -8 6 -16 146 -74 159 -67 7 5 10
4 5 -3 -8 -13 29 -26 45 -16 7 4 9 3 6 -3 -6 -10 101 -42 213 -64 86 -16 365
-23 455 -10 117 16 267 53 252 63 -7 5 1 8 21 8 40 0 183 60 175 73 -3 6 -1 7
5 3 5 -3 30 5 54 18 23 14 58 32 76 40 18 9 31 20 28 25 -4 5 -1 13 5 17 8 5
9 3 4 -6 -5 -8 -3 -11 6 -8 8 3 13 10 12 16 -1 5 5 9 15 8 9 0 16 5 14 12 -1
8 2 11 8 7 14 -8 63 42 54 57 -4 7 -3 8 5 4 6 -4 8 -13 4 -19 -3 -7 14 6 39
28 25 22 44 46 42 53 -2 7 0 11 4 8 11 -7 83 61 80 76 -2 7 2 12 9 11 10 -2
83 77 83 91 0 3 11 17 25 32 14 15 25 32 25 39 0 7 7 18 15 25 9 8 13 21 10
34 -4 14 -3 17 3 8 9 -13 13 -7 82 141 12 26 23 59 24 72 0 14 5 25 9 25 4 0
7 6 6 13 -1 6 3 25 10 40 12 31 38 154 42 200 3 42 3 299 0 327 -13 105 -50
260 -63 260 -4 0 -5 7 -2 15 4 8 1 15 -6 15 -6 0 -9 4 -5 9 7 12 -13 60 -39
90 -12 13 -15 21 -8 17 27 -16 -88 185 -122 213 -9 7 -16 18 -16 23 0 19 -102
128 -113 121 -5 -3 -7 -2 -4 4 3 5 -65 83 -153 174 l-159 164 6 100 c7 117 -9
193 -60 295 -64 128 -215 247 -357 279 -64 15 -215 12 -277 -4z m154 -751 c-3
-3 -12 -4 -19 -1 -8 3 -5 6 6 6 11 1 17 -2 13 -5z m808 -223 c-6 -5 -25 10
-25 20 0 5 6 4 14 -3 8 -7 12 -15 11 -17z m95 -131 c-6 -11 -13 -20 -16 -20
-2 0 0 9 6 20 6 11 13 20 16 20 2 0 0 -9 -6 -20z m21 -13 c-10 -9 -11 -8 -5 6
3 10 9 15 12 12 3 -3 0 -11 -7 -18z m92 -117 c3 -11 1 -18 -4 -14 -5 3 -9 12
-9 20 0 20 7 17 13 -6z m-3403 -35 c0 -2 -6 -8 -13 -14 -10 -8 -14 -7 -14 2 0
8 6 14 14 14 7 0 13 -1 13 -2z m-29 -452 c13 -16 12 -17 -3 -4 -10 7 -18 15
-18 17 0 8 8 3 21 -13z m3116 -55 c-3 -8 -6 -5 -6 6 -1 11 2 17 5 13 3 -3 4
-12 1 -19z m-3042 -18 c10 -11 16 -20 13 -20 -3 0 -13 9 -23 20 -10 11 -16 20
-13 20 3 0 13 -9 23 -20z m86 -87 c13 -16 12 -17 -3 -4 -10 7 -18 15 -18 17 0
8 8 3 21 -13z m74 -73 c10 -11 16 -20 13 -20 -3 0 -13 9 -23 20 -10 11 -16 20
-13 20 3 0 13 -9 23 -20z m86 -87 c13 -16 12 -17 -3 -4 -10 7 -18 15 -18 17 0
8 8 3 21 -13z m2800 -56 c-10 -9 -11 -8 -5 6 3 10 9 15 12 12 3 -3 0 -11 -7
-18z m-2726 -17 c10 -11 16 -20 13 -20 -3 0 -13 9 -23 20 -10 11 -16 20 -13
20 3 0 13 -9 23 -20z m86 -87 c13 -16 12 -17 -3 -4 -10 7 -18 15 -18 17 0 8 8
3 21 -13z m74 -73 c10 -11 16 -20 13 -20 -3 0 -13 9 -23 20 -10 11 -16 20 -13
20 3 0 13 -9 23 -20z m2505 -45 c0 -5 -5 -3 -10 5 -5 8 -10 20 -10 25 0 6 5 3
10 -5 5 -8 10 -19 10 -25z m-2419 -42 c13 -16 12 -17 -3 -4 -10 7 -18 15 -18
17 0 8 8 3 21 -13z m74 -73 c10 -11 16 -20 13 -20 -3 0 -13 9 -23 20 -10 11
-16 20 -13 20 3 0 13 -9 23 -20z m86 -87 c13 -16 12 -17 -3 -4 -10 7 -18 15
-18 17 0 8 8 3 21 -13z m768 -7 c11 -14 6 -15 -27 -7 -4 1 8 21 12 21 2 0 9
-6 15 -14z m1261 -20 c0 -2 -8 -10 -17 -17 -16 -13 -17 -12 -4 4 13 16 21 21
21 13z m655 -16 c3 -5 1 -10 -4 -10 -6 0 -11 5 -11 10 0 6 2 10 4 10 3 0 8 -4
11 -10z m-2610 -30 c10 -11 16 -20 13 -20 -3 0 -13 9 -23 20 -10 11 -16 20
-13 20 3 0 13 -9 23 -20z m762 -25 c0 -8 -4 -12 -9 -9 -5 3 -6 10 -3 15 9 13
12 11 12 -6z m-676 -62 c13 -16 12 -17 -3 -4 -17 13 -22 21 -14 21 2 0 10 -8
17 -17z m1634 -41 c-3 -3 -11 0 -18 7 -9 10 -8 11 6 5 10 -3 15 -9 12 -12z
m-1560 -32 c10 -11 16 -20 13 -20 -3 0 -13 9 -23 20 -10 11 -16 20 -13 20 3 0
13 -9 23 -20z m1315 -40 c8 -5 11 -10 5 -10 -5 0 -17 5 -25 10 -8 5 -10 10 -5
10 6 0 17 -5 25 -10z m-1235 -40 c10 -11 16 -20 13 -20 -3 0 -13 9 -23 20 -10
11 -16 20 -13 20 3 0 13 -9 23 -20z m2044 -114 c9 -10 8 -15 -2 -19 -8 -3 -13
3 -13 14 0 23 0 23 15 5z m-52 -49 c0 -8 -6 -14 -14 -14 -9 0 -10 4 -2 14 6 7
12 13 14 13 1 0 2 -6 2 -13z m-167 -67 c8 -5 11 -10 5 -10 -5 0 -17 5 -25 10
-8 5 -10 10 -5 10 6 0 17 -5 25 -10z m-160 -120 c0 -5 -5 -10 -11 -10 -5 0 -7
5 -4 10 3 6 8 10 11 10 2 0 4 -4 4 -10z m-153 -56 c-3 -3 -12 -4 -19 -1 -8 3
-5 6 6 6 11 1 17 -2 13 -5z"/>
</g>
</svg>
